<svg width="1440" height="278" viewBox="0 0 1440 278" fill="none" xmlns="http://www.w3.org/2000/svg">
<path fill-rule="evenodd" clip-rule="evenodd" d="M0 0H1440V278H0V0ZM380.547 0.663485L380.368 28.5298H417.44L417.62 0.663485H380.547ZM378.693 0.663485H0.973631V28.5298H297.709L297.886 1.04188L299.74 1.04743L299.563 28.5298H339.58L339.752 1.70537L341.606 1.71091L341.433 28.5298H378.514L378.693 0.663485ZM1009.51 0.663485L1009.33 28.5298H1034.75L1034.92 1.04188L1036.78 1.04743L1036.6 28.5298H1076.62L1076.79 1.70537L1078.64 1.71091L1078.47 28.5298H1115.55L1115.73 0.663485H1009.51ZM1117.59 0.663485L1117.41 28.5298H1154.5L1154.68 1.04188L1156.54 1.04743L1156.36 28.5298H1196.37L1196.55 1.70537L1198.4 1.71091L1198.23 28.5298H1235.31L1235.49 0.663485H1117.59ZM1237.34 0.663485L1237.16 28.5298H1439.03V0.663485H1237.34ZM1007.66 0.663485H739.746L739.567 28.5298H926.675L926.852 1.04188L928.706 1.04743L928.529 28.5298H968.545L968.718 1.70537L970.572 1.71091L970.399 28.5298H1007.48L1007.66 0.663485ZM419.473 0.663485L419.294 28.5298H459.311L459.49 0.663485H419.473ZM461.344 0.663485L461.164 28.5298H498.245L498.424 0.663485H461.344ZM500.278 0.663485L500.099 28.5298H537.18L537.359 0.663485H500.278ZM539.213 0.663485L539.033 28.5298H579.05L579.23 0.663485H539.213ZM581.083 0.663485L580.904 28.5298H617.984L618.164 0.663485H581.083ZM620.018 0.663485L619.838 28.5298H656.908L657.088 0.663485H620.018ZM658.941 0.663485L658.762 28.5298H698.779L698.958 0.663485H658.941ZM700.812 0.663485L700.632 28.5298H737.713L737.892 0.663485H700.812ZM0.973631 29.8568V67.0119H297.461L297.701 29.8568H0.973631ZM299.555 29.8568L299.315 67.0119H339.332L339.571 29.8568H299.555ZM341.425 29.8568L341.185 67.0119H378.266L378.505 29.8568H341.425ZM380.359 29.8568L380.12 67.0119H417.192L417.432 29.8568H380.359ZM419.285 29.8568L419.046 67.0119H459.063L459.302 29.8568H419.285ZM461.156 29.8568L460.916 67.0119H497.997L498.236 29.8568H461.156ZM500.09 29.8568L499.851 67.0119H536.932L537.171 29.8568H500.09ZM539.025 29.8568L538.786 67.0119H578.802L579.042 29.8568H539.025ZM580.895 29.8568L580.656 67.0119H617.736L617.976 29.8568H580.895ZM619.83 29.8568L619.59 67.0119H656.66L656.9 29.8568H619.83ZM658.753 29.8568L658.514 67.0119H698.531L698.77 29.8568H658.753ZM700.624 29.8568L700.384 67.0119H737.465L737.704 29.8568H700.624ZM739.558 29.8568L739.319 67.0119H926.427L926.666 29.8568H739.558ZM928.52 29.8568L928.281 67.0119H968.297L968.536 29.8568H928.52ZM970.39 29.8568L970.151 67.0119H1007.23L1007.47 29.8568H970.39ZM1009.32 29.8568L1009.09 67.0119H1034.5L1034.74 29.8568H1009.32ZM1036.59 29.8568L1036.35 67.0119H1076.37L1076.61 29.8568H1036.59ZM1078.46 29.8568L1078.22 67.0119H1115.3L1115.54 29.8568H1078.46ZM1117.4 29.8568L1117.16 67.0119H1154.26L1154.5 29.8568H1117.4ZM1156.35 29.8568L1156.11 67.0119H1196.13L1196.37 29.8568H1156.35ZM1198.22 29.8568L1197.98 67.0119H1235.06L1235.3 29.8568H1198.22ZM1237.15 29.8568L1236.91 67.0119H1439.03V29.8568H1237.15ZM0.973631 68.3389V89.5704H297.316L297.453 68.3389H0.973631ZM299.307 68.3389L299.17 89.5704H339.186L339.323 68.3389H299.307ZM341.177 68.3389L341.04 89.5704H378.121L378.257 68.3389H341.177ZM380.111 68.3389L379.974 89.5704H417.047L417.184 68.3389H380.111ZM419.037 68.3389L418.901 89.5704H458.917L459.054 68.3389H419.037ZM460.908 68.3389L460.771 89.5704H497.852L497.988 68.3389H460.908ZM499.842 68.3389L499.705 89.5704H536.786L536.923 68.3389H499.842ZM538.777 68.3389L538.64 89.5704H578.657L578.794 68.3389H538.777ZM580.647 68.3389L580.511 89.5704H617.591L617.728 68.3389H580.647ZM619.582 68.3389L619.445 89.5704H656.515L656.652 68.3389H619.582ZM658.505 68.3389L658.369 89.5704H698.385L698.522 68.3389H658.505ZM700.376 68.3389L700.239 89.5704H737.32L737.456 68.3389H700.376ZM739.31 68.3389L739.173 89.5704H926.281L926.418 68.3389H739.31ZM928.272 68.3389L928.135 89.5704H968.152L968.289 68.3389H928.272ZM970.142 68.3389L970.006 89.5704H1007.09L1007.22 68.3389H970.142ZM1009.08 68.3389L1008.94 89.5704H1034.35L1034.49 68.3389H1009.08ZM1036.34 68.3389L1036.21 89.5704H1076.22L1076.36 68.3389H1036.34ZM1078.22 68.3389L1078.08 89.5704H1115.16L1115.3 68.3389H1078.22ZM1117.15 68.3389L1117.01 89.5704H1154.11L1154.25 68.3389H1117.15ZM1156.1 68.3389L1155.96 89.5704H1195.98L1196.12 68.3389H1156.1ZM1197.97 68.3389L1197.84 89.5704H1234.92L1235.05 68.3389H1197.97ZM1236.91 68.3389L1236.77 89.5704H1439.03V68.3389H1236.91ZM0.973631 90.8974V105.494H297.213L297.308 90.8974H0.973631ZM299.161 90.8974L299.067 105.494H339.084L339.178 90.8974H299.161ZM341.032 90.8974L340.938 105.494H378.018L378.112 90.8974H341.032ZM379.966 90.8974L379.872 105.494H416.944L417.038 90.8974H379.966ZM418.892 90.8974L418.798 105.494H458.815L458.909 90.8974H418.892ZM460.763 90.8974L460.668 105.494H497.749L497.843 90.8974H460.763ZM499.697 90.8974L499.603 105.494H536.684L536.778 90.8974H499.697ZM538.632 90.8974L538.538 105.494H578.554L578.648 90.8974H538.632ZM580.502 90.8974L580.408 105.494H617.488L617.582 90.8974H580.502ZM619.436 90.8974L619.342 105.494H656.412L656.506 90.8974H619.436ZM658.36 90.8974L658.266 105.494H698.283L698.377 90.8974H658.36ZM700.231 90.8974L700.136 105.494H737.217L737.311 90.8974H700.231ZM739.165 90.8974L739.071 105.494H926.179L926.273 90.8974H739.165ZM928.127 90.8974L928.033 105.494H968.049L968.143 90.8974H928.127ZM969.997 90.8974L969.903 105.494H1006.98L1007.08 90.8974H969.997ZM1008.93 90.8974L1008.84 105.494H1034.25L1034.35 90.8974H1008.93ZM1036.2 90.8974L1036.11 105.494H1076.12L1076.22 90.8974H1036.2ZM1078.07 90.8974L1077.98 105.494H1115.06L1115.15 90.8974H1078.07ZM1117 90.8974L1116.91 105.494H1154.01L1154.1 90.8974H1117ZM1155.96 90.8974L1155.86 105.494H1195.88L1195.97 90.8974H1155.96ZM1197.83 90.8974L1197.73 105.494H1234.81L1234.91 90.8974H1197.83ZM1236.76 90.8974L1236.67 105.494H1439.03V90.8974H1236.76ZM0.973631 106.821V138.005H297.004L297.205 106.821H0.973631ZM299.059 106.821L298.858 138.005H338.874L339.075 106.821H299.059ZM340.929 106.821L340.728 138.005H377.809L378.009 106.821H340.929ZM379.863 106.821L379.662 138.005H416.735L416.936 106.821H379.863ZM418.79 106.821L418.589 138.005H458.605L458.806 106.821H418.79ZM460.66 106.821L460.459 138.005H497.539L497.74 106.821H460.66ZM499.594 106.821L499.393 138.005H536.474L536.675 106.821H499.594ZM538.529 106.821L538.328 138.005H578.345L578.546 106.821H538.529ZM580.399 106.821L580.199 138.005H617.279L617.48 106.821H580.399ZM619.334 106.821L619.133 138.005H656.203L656.404 106.821H619.334ZM658.258 106.821L658.057 138.005H698.073L698.274 106.821H658.258ZM700.128 106.821L699.927 138.005H737.007L737.208 106.821H700.128ZM739.062 106.821L738.861 138.005H925.969L926.17 106.821H739.062ZM928.024 106.821L927.823 138.005H967.84L968.041 106.821H928.024ZM969.894 106.821L969.694 138.005H1006.77L1006.97 106.821H969.894ZM1008.83 106.821L1008.63 138.005H1034.04L1034.24 106.821H1008.83ZM1036.1 106.821L1035.9 138.005H1075.91L1076.11 106.821H1036.1ZM1077.97 106.821L1077.77 138.005H1114.85L1115.05 106.821H1077.97ZM1116.9 106.821L1116.7 138.005H1153.8L1154 106.821H1116.9ZM1155.85 106.821L1155.65 138.005H1195.67L1195.87 106.821H1155.85ZM1197.72 106.821L1197.52 138.005H1234.6L1234.8 106.821H1197.72ZM1236.66 106.821L1236.46 138.005H1439.03V106.821H1236.66ZM0.973631 139.332V173.169H296.777L296.995 139.332H0.973631ZM298.849 139.332L298.631 173.169H338.648L338.866 139.332H298.849ZM340.72 139.332L340.502 173.169H377.582L377.8 139.332H340.72ZM379.654 139.332L379.436 173.169H416.508L416.726 139.332H379.654ZM418.58 139.332L418.362 173.169H458.379L458.597 139.332H418.58ZM460.451 139.332L460.232 173.169H497.313L497.531 139.332H460.451ZM499.385 139.332L499.167 173.169H536.248L536.466 139.332H499.385ZM538.32 139.332L538.102 173.169H578.118L578.336 139.332H538.32ZM580.19 139.332L579.972 173.169H617.052L617.27 139.332H580.19ZM619.124 139.332L618.906 173.169H655.976L656.194 139.332H619.124ZM658.048 139.332L657.83 173.169H697.847L698.065 139.332H658.048ZM699.918 139.332L699.701 173.169H736.781L736.999 139.332H699.918ZM738.853 139.332L738.635 173.169H925.743L925.961 139.332H738.853ZM927.815 139.332L927.597 173.169H967.613L967.831 139.332H927.815ZM969.685 139.332L969.467 173.169H1006.55L1006.77 139.332H969.685ZM1008.62 139.332L1008.4 173.169H1033.82L1034.03 139.332H1008.62ZM1035.89 139.332L1035.67 173.169H1075.69L1075.9 139.332H1035.89ZM1077.76 139.332L1077.54 173.169H1114.62L1114.84 139.332H1077.76ZM1116.69 139.332L1116.47 173.169H1153.57L1153.79 139.332H1116.69ZM1155.64 139.332L1155.43 173.169H1195.44L1195.66 139.332H1155.64ZM1197.51 139.332L1197.3 173.169H1234.38L1234.59 139.332H1197.51ZM1236.45 139.332L1236.23 173.169H1439.03V139.332H1236.45ZM0.973631 174.496V189.757H296.671L296.769 174.496H0.973631ZM298.623 174.496L298.524 189.757H338.541L338.639 174.496H298.623ZM340.493 174.496L340.395 189.757H377.475L377.573 174.496H340.493ZM416.5 174.496H379.427L379.329 189.757H416.401L416.5 174.496ZM418.354 174.496L418.255 189.757H458.272L458.37 174.496H418.354ZM460.224 174.496L460.126 189.757H497.206L497.304 174.496H460.224ZM499.158 174.496L499.06 189.757H536.141L536.239 174.496H499.158ZM538.093 174.496L537.995 189.757H578.011L578.11 174.496H538.093ZM579.963 174.496L579.865 189.757H616.946L617.044 174.496H579.963ZM618.898 174.496L618.799 189.757H655.869L655.968 174.496H618.898ZM657.822 174.496L657.723 189.757H697.74L697.838 174.496H657.822ZM699.692 174.496L699.594 189.757H736.674L736.772 174.496H699.692ZM738.626 174.496L738.528 189.757H925.636L925.734 174.496H738.626ZM927.588 174.496L927.49 189.757H967.506L967.605 174.496H927.588ZM969.458 174.496L969.36 189.757H1006.44L1006.54 174.496H969.458ZM1033.81 174.496H1008.39L1008.29 189.757H1033.71L1033.81 174.496ZM1035.66 174.496L1035.56 189.757H1075.58L1075.68 174.496H1035.66ZM1077.53 174.496L1077.43 189.757H1114.51L1114.61 174.496H1077.53ZM1153.56 174.496H1116.47L1116.37 189.757H1153.47L1153.56 174.496ZM1155.42 174.496L1155.32 189.757H1195.34L1195.43 174.496H1155.42ZM1197.29 174.496L1197.19 189.757H1234.27L1234.37 174.496H1197.29ZM1439.03 174.496H1236.22L1236.12 189.757H1439.03V174.496ZM0.973631 191.084V206.344H296.564L296.662 191.084H0.973631ZM298.516 191.084L298.418 206.344H338.434L338.532 191.084H298.516ZM340.386 191.084L340.288 206.344H377.368L377.467 191.084H340.386ZM379.32 191.084L379.222 206.344H416.295L416.393 191.084H379.32ZM418.247 191.084L418.148 206.344H458.165L458.263 191.084H418.247ZM460.117 191.084L460.019 206.344H497.099L497.198 191.084H460.117ZM499.051 191.084L498.953 206.344H536.034L536.132 191.084H499.051ZM537.986 191.084L537.888 206.344H577.904L578.003 191.084H537.986ZM579.857 191.084L579.758 206.344H616.839L616.937 191.084H579.857ZM618.791 191.084L618.693 206.344H655.763L655.861 191.084H618.791ZM657.715 191.084L657.616 206.344H697.633L697.731 191.084H657.715ZM699.585 191.084L699.487 206.344H736.567L736.666 191.084H699.585ZM738.519 191.084L738.421 206.344H925.529L925.627 191.084H738.519ZM927.481 191.084L927.383 206.344H967.399L967.498 191.084H927.481ZM969.352 191.084L969.253 206.344H1006.33L1006.43 191.084H969.352ZM1008.29 191.084L1008.19 206.344H1033.6L1033.7 191.084H1008.29ZM1035.55 191.084L1035.46 206.344H1075.47L1075.57 191.084H1035.55ZM1077.42 191.084L1077.33 206.344H1114.41L1114.5 191.084H1077.42ZM1116.36 191.084L1116.26 206.344H1153.36L1153.46 191.084H1116.36ZM1155.31 191.084L1155.21 206.344H1195.23L1195.33 191.084H1155.31ZM1197.18 191.084L1197.08 206.344H1234.16L1234.26 191.084H1197.18ZM1236.12 191.084L1236.02 206.344H1439.03V191.084H1236.12ZM0.973631 207.671V238.191H296.359L296.555 207.671H0.973631ZM298.409 207.671L298.212 238.191H338.229L338.425 207.671H298.409ZM340.279 207.671L340.083 238.191H377.163L377.36 207.671H340.279ZM379.214 207.671L379.017 238.191H416.089L416.286 207.671H379.214ZM418.14 207.671L417.943 238.191H457.96L458.156 207.671H418.14ZM460.01 207.671L459.814 238.191H496.894L497.091 207.671H460.01ZM498.944 207.671L498.748 238.191H535.829L536.026 207.671H498.944ZM537.879 207.671L537.683 238.191H577.699L577.896 207.671H537.879ZM579.75 207.671L579.553 238.191H616.633L616.83 207.671H579.75ZM618.684 207.671L618.487 238.191H655.557L655.754 207.671H618.684ZM657.608 207.671L657.411 238.191H697.428L697.624 207.671H657.608ZM699.478 207.671L699.282 238.191H736.362L736.559 207.671H699.478ZM738.412 207.671L738.216 238.191H925.324L925.521 207.671H738.412ZM927.374 207.671L927.178 238.191H967.194L967.391 207.671H927.374ZM969.245 207.671L969.048 238.191H1006.13L1006.33 207.671H969.245ZM1008.18 207.671L1007.98 238.191H1033.4L1033.59 207.671H1008.18ZM1035.45 207.671L1035.25 238.191H1075.27L1075.46 207.671H1035.45ZM1077.32 207.671L1077.12 238.191H1114.2L1114.4 207.671H1077.32ZM1116.25 207.671L1116.06 238.191H1153.15L1153.35 207.671H1116.25ZM1155.2 207.671L1155.01 238.191H1195.02L1195.22 207.671H1155.2ZM1197.07 207.671L1196.88 238.191H1233.96L1234.15 207.671H1197.07ZM1236.01 207.671L1235.81 238.191H1439.03V207.671H1236.01ZM0.973631 239.518V256.768H296.239L296.35 239.518H0.973631ZM298.204 239.518L298.093 256.768H338.109L338.22 239.518H298.204ZM340.074 239.518L339.963 256.768H377.043L377.155 239.518H340.074ZM379.008 239.518L378.897 256.768H415.97L416.081 239.518H379.008ZM417.935 239.518L417.823 256.768H457.84L457.951 239.518H417.935ZM459.805 239.518L459.694 256.768H496.774L496.885 239.518H459.805ZM498.739 239.518L498.628 256.768H535.709L535.82 239.518H498.739ZM537.674 239.518L537.563 256.768H577.58L577.691 239.518H537.674ZM579.544 239.518L579.433 256.768H616.514L616.625 239.518H579.544ZM618.479 239.518L618.368 256.768H655.438L655.549 239.518H618.479ZM657.403 239.518L657.292 256.768H697.308L697.419 239.518H657.403ZM699.273 239.518L699.162 256.768H736.242L736.353 239.518H699.273ZM738.207 239.518L738.096 256.768H925.204L925.315 239.518H738.207ZM927.169 239.518L927.058 256.768H967.075L967.186 239.518H927.169ZM969.039 239.518L968.928 256.768H1006.01L1006.12 239.518H969.039ZM1007.97 239.518L1007.86 256.768H1033.28L1033.39 239.518H1007.97ZM1035.24 239.518L1035.13 256.768H1075.15L1075.26 239.518H1035.24ZM1077.11 239.518L1077 256.768H1114.08L1114.19 239.518H1077.11ZM1116.05 239.518L1115.94 256.768H1153.03L1153.15 239.518H1116.05ZM1155 239.518L1154.89 256.768H1194.9L1195.02 239.518H1155ZM1196.87 239.518L1196.76 256.768H1233.84L1233.95 239.518H1196.87ZM1235.8 239.518L1235.69 256.768H1439.03V239.518H1235.8ZM0.973631 258.095V277.337H296.106L296.23 258.095H0.973631ZM298.084 258.095L297.96 277.337H337.977L338.101 258.095H298.084ZM339.954 258.095L339.83 277.337H376.911L377.035 258.095H339.954ZM378.889 258.095L378.765 277.337H415.837L415.961 258.095H378.889ZM417.815 258.095L417.691 277.337H457.708L457.832 258.095H417.815ZM459.685 258.095L459.561 277.337H496.642L496.766 258.095H459.685ZM498.62 258.095L498.496 277.337H535.577L535.701 258.095H498.62ZM537.554 258.095L537.43 277.337H577.447L577.571 258.095H537.554ZM579.425 258.095L579.301 277.337H616.381L616.505 258.095H579.425ZM618.359 258.095L618.235 277.337H655.305L655.429 258.095H618.359ZM657.283 258.095L657.159 277.337H697.176L697.299 258.095H657.283ZM699.153 258.095L699.029 277.337H736.11L736.234 258.095H699.153ZM738.088 258.095L737.964 277.337H925.072L925.196 258.095H738.088ZM927.049 258.095L926.926 277.337H966.942L967.066 258.095H927.049ZM968.92 258.095L968.796 277.337H1005.88L1006 258.095H968.92ZM1007.85 258.095L1007.73 277.337H1033.14L1033.27 258.095H1007.85ZM1035.12 258.095L1035 277.337H1075.01L1075.14 258.095H1035.12ZM1076.99 258.095L1076.87 277.337H1113.95L1114.07 258.095H1076.99ZM1115.93 258.095L1115.8 277.337H1152.9L1153.03 258.095H1115.93ZM1154.88 258.095L1154.76 277.337H1194.77L1194.9 258.095H1154.88ZM1196.75 258.095L1196.63 277.337H1233.71L1233.83 258.095H1196.75ZM1235.68 258.095L1235.56 277.337H1439.03V258.095H1235.68Z" fill="#B674F8" fill-opacity="0.25"/>
</svg>
