<svg width="32" height="33" viewBox="0 0 32 33" fill="none" xmlns="http://www.w3.org/2000/svg">
<path d="M16 3.16675C14.249 3.16675 12.5152 3.51162 10.8975 4.18169C9.27987 4.85175 7.81001 5.83388 6.5719 7.07199C4.07141 9.57248 2.66666 12.9639 2.66666 16.5001C2.66666 22.3934 6.49332 27.3934 11.7867 29.1667C12.4533 29.2734 12.6667 28.8601 12.6667 28.5001V26.2467C8.97332 27.0467 8.18666 24.4601 8.18666 24.4601C7.57332 22.9134 6.70666 22.5001 6.70666 22.5001C5.49332 21.6734 6.79999 21.7001 6.79999 21.7001C8.13332 21.7934 8.83999 23.0734 8.83999 23.0734C9.99999 25.1001 11.96 24.5001 12.72 24.1801C12.84 23.3134 13.1867 22.7267 13.56 22.3934C10.6 22.0601 7.49332 20.9134 7.49332 15.8334C7.49332 14.3534 7.99999 13.1667 8.86666 12.2201C8.73332 11.8867 8.26666 10.5001 8.99999 8.70008C8.99999 8.70008 10.12 8.34008 12.6667 10.0601C13.72 9.76675 14.8667 9.62008 16 9.62008C17.1333 9.62008 18.28 9.76675 19.3333 10.0601C21.88 8.34008 23 8.70008 23 8.70008C23.7333 10.5001 23.2667 11.8867 23.1333 12.2201C24 13.1667 24.5067 14.3534 24.5067 15.8334C24.5067 20.9267 21.3867 22.0467 18.4133 22.3801C18.8933 22.7934 19.3333 23.6067 19.3333 24.8467V28.5001C19.3333 28.8601 19.5467 29.2867 20.2267 29.1667C25.52 27.3801 29.3333 22.3934 29.3333 16.5001C29.3333 14.7491 28.9884 13.0153 28.3184 11.3976C27.6483 9.77996 26.6662 8.31011 25.4281 7.07199C24.19 5.83388 22.7201 4.85175 21.1024 4.18169C19.4848 3.51162 17.7509 3.16675 16 3.16675Z" fill="#F3F0F5"/>
</svg>
