<svg width="32" height="33" viewBox="0 0 32 33" fill="none" xmlns="http://www.w3.org/2000/svg">
    <path
        d="M27.5 4H4.5C3.94687 4 3.5 4.44687 3.5 5V28C3.5 28.5531 3.94687 29 4.5 29H27.5C28.0531 29 28.5 28.5531 28.5 28V5C28.5 4.44687 28.0531 4 27.5 4ZM24 10.4281L22.725 11.65C22.6125 11.7344 22.5594 11.8719 22.5812 12.0063V20.9969C22.5594 21.1344 22.6125 21.2719 22.725 21.3531L23.975 22.575V22.8469H17.7V22.5875L18.9906 21.3344C19.1188 21.2063 19.1187 21.1687 19.1187 20.9781V13.7031L15.525 22.8156H15.0406L10.8594 13.7031V19.8125C10.8219 20.0688 10.9125 20.3281 11.0938 20.5125L12.775 22.5469V22.8188H8V22.5469L9.68125 20.5125C9.76983 20.421 9.83575 20.31 9.87374 20.1885C9.91173 20.0669 9.92072 19.9382 9.9 19.8125V12.75C9.92187 12.5531 9.84687 12.3625 9.69687 12.2281L8.20312 10.4281V10.1562H12.8438L16.425 18.0156L19.5781 10.1625H24V10.4281Z"
        fill="#F3F0F5" />
</svg>