<svg width="32" height="32" viewBox="0 0 32 32" fill="none" xmlns="http://www.w3.org/2000/svg">
<g opacity="0.6">
<path d="M26.725 15.6751L12.725 30.6751C12.6342 30.7778 12.5226 30.8598 12.3976 30.9159C12.2726 30.9719 12.137 31.0007 12 31.0001C11.8393 30.9985 11.681 30.96 11.5375 30.8876C11.3471 30.7849 11.1946 30.6239 11.1024 30.4281C11.0101 30.2324 10.983 30.0123 11.025 29.8001L12.85 20.6376L5.65 17.9376C5.49616 17.8779 5.35901 17.782 5.2502 17.6579C5.14139 17.5339 5.06413 17.3854 5.025 17.2251C4.98696 17.0642 4.98992 16.8964 5.0336 16.737C5.07728 16.5775 5.16028 16.4316 5.275 16.3126L19.275 1.3126C19.4244 1.15945 19.6191 1.05828 19.8303 1.02394C20.0415 0.989611 20.2581 1.02393 20.4484 1.12185C20.6386 1.21978 20.7924 1.37614 20.8872 1.56798C20.982 1.75981 21.0128 1.97699 20.975 2.1876L19.15 11.3626L26.35 14.0626C26.5046 14.1187 26.6427 14.2126 26.7518 14.3356C26.8609 14.4586 26.9376 14.607 26.9748 14.7671C27.0121 14.9273 27.0088 15.0943 26.9651 15.2528C26.9215 15.4114 26.839 15.5565 26.725 15.6751Z" fill="#EA5DD6"/>
</g>
</svg>
