<svg width="23" height="30" viewBox="0 0 23 30" fill="none" xmlns="http://www.w3.org/2000/svg">
<path d="M22.725 14.6751L8.725 29.6751C8.63425 29.7778 8.52263 29.8598 8.3976 29.9159C8.27257 29.9719 8.13701 30.0007 8 30.0001C7.83925 29.9985 7.68102 29.96 7.5375 29.8876C7.34709 29.7849 7.1946 29.6239 7.10237 29.4281C7.01014 29.2324 6.98303 29.0123 7.025 28.8001L8.85 19.6376L1.65 16.9376C1.49616 16.8779 1.35901 16.782 1.2502 16.6579C1.14139 16.5339 1.06413 16.3854 1.025 16.2251C0.986965 16.0642 0.989923 15.8964 1.0336 15.737C1.07728 15.5775 1.16028 15.4316 1.275 15.3126L15.275 0.3126C15.4244 0.159453 15.6191 0.0582791 15.8303 0.0239449C16.0415 -0.0103893 16.2581 0.0239273 16.4484 0.121852C16.6386 0.219776 16.7924 0.376144 16.8872 0.567976C16.982 0.759808 17.0128 0.976988 16.975 1.1876L15.15 10.3626L22.35 13.0626C22.5046 13.1187 22.6427 13.2126 22.7518 13.3356C22.8609 13.4586 22.9376 13.607 22.9748 13.7671C23.0121 13.9273 23.0088 14.0943 22.9651 14.2528C22.9215 14.4114 22.839 14.5565 22.725 14.6751Z" fill="#0094FD" fill-opacity="0.5"/>
</svg>
