<svg width="165" height="164" viewBox="0 0 165 164" fill="none" xmlns="http://www.w3.org/2000/svg">
<g filter="url(#filter0_d_100_793)">
<path d="M5.95494 62.1284L127.187 1.68717C128.258 1.15335 129.511 1.12684 130.603 1.6149L153.912 12.0293L159.194 80.8777C159.312 82.4215 158.529 83.8951 157.183 84.6606L35.4834 153.883L13.584 140.241C12.5037 139.568 11.8081 138.421 11.7108 137.152L5.95494 62.1284Z" fill="#251E2A" shape-rendering="crispEdges"/>
<path d="M5.95494 62.1284L127.187 1.68717C128.258 1.15335 129.511 1.12684 130.603 1.6149L153.912 12.0293M5.95494 62.1284L29.7031 78.5407M5.95494 62.1284L11.7108 137.152C11.8081 138.421 12.5037 139.568 13.584 140.241L35.4834 153.883M153.912 12.0293L29.7031 78.5407M153.912 12.0293L159.194 80.8777C159.312 82.4215 158.529 83.8951 157.183 84.6606L35.4834 153.883M153.912 12.0293L100.558 98.4736C99.5882 100.045 97.6679 100.749 95.9121 100.175L29.7031 78.5407M29.7031 78.5407L35.4834 153.883" stroke="#E1C5FD" stroke-opacity="0.35" stroke-width="2" shape-rendering="crispEdges"/>
</g>
<defs>
<filter id="filter0_d_100_793" x="0.906372" y="0.266846" width="163.299" height="162.78" filterUnits="userSpaceOnUse" color-interpolation-filters="sRGB">
<feFlood flood-opacity="0" result="BackgroundImageFix"/>
<feColorMatrix in="SourceAlpha" type="matrix" values="0 0 0 0 0 0 0 0 0 0 0 0 0 0 0 0 0 0 127 0" result="hardAlpha"/>
<feOffset dy="4"/>
<feGaussianBlur stdDeviation="2"/>
<feComposite in2="hardAlpha" operator="out"/>
<feColorMatrix type="matrix" values="0 0 0 0 0 0 0 0 0 0 0 0 0 0 0 0 0 0 0.25 0"/>
<feBlend mode="normal" in2="BackgroundImageFix" result="effect1_dropShadow_100_793"/>
<feBlend mode="normal" in="SourceGraphic" in2="effect1_dropShadow_100_793" result="shape"/>
</filter>
</defs>
</svg>
