<svg width="26" height="25" viewBox="0 0 26 25" fill="none" xmlns="http://www.w3.org/2000/svg">
<path d="M24.5 0H1.5C0.946875 0 0.5 0.446875 0.5 1V24C0.5 24.5531 0.946875 25 1.5 25H24.5C25.0531 25 25.5 24.5531 25.5 24V1C25.5 0.446875 25.0531 0 24.5 0ZM21 6.42813L19.725 7.65C19.6125 7.73437 19.5594 7.87188 19.5812 8.00625V16.9969C19.5594 17.1344 19.6125 17.2719 19.725 17.3531L20.975 18.575V18.8469H14.7V18.5875L15.9906 17.3344C16.1188 17.2063 16.1187 17.1687 16.1187 16.9781V9.70312L12.525 18.8156H12.0406L7.85938 9.70312V15.8125C7.82188 16.0688 7.9125 16.3281 8.09375 16.5125L9.775 18.5469V18.8188H5V18.5469L6.68125 16.5125C6.76983 16.421 6.83575 16.31 6.87374 16.1885C6.91173 16.0669 6.92072 15.9382 6.9 15.8125V8.75C6.92187 8.55313 6.84687 8.3625 6.69687 8.22812L5.20312 6.42813V6.15625H9.84375L13.425 14.0156L16.5781 6.1625H21V6.42813Z" fill="#F3F0F5"/>
</svg>
